<?xml version="1.0" standalone="no"?>
<!DOCTYPE svg PUBLIC "-//W3C//DTD SVG 20010904//EN"
 "http://www.w3.org/TR/2001/REC-SVG-20010904/DTD/svg10.dtd">
<svg version="1.0" xmlns="http://www.w3.org/2000/svg"
 width="400.000000pt" height="400.000000pt" viewBox="0 0 400.000000 400.000000"
 preserveAspectRatio="xMidYMid meet">
<metadata>
Created by potrace 1.14, written by Peter Selinger 2001-2017
</metadata>
<g transform="translate(0.000000,400.000000) scale(0.100000,-0.100000)"
fill="#000000" stroke="none">
<path d="M1054 3796 c-18 -8 -34 -18 -38 -24 -3 -5 6 -32 19 -61 14 -28 25
-53 25 -56 1 -2 18 -43 40 -90 22 -47 39 -88 40 -90 0 -3 0 -6 1 -7 5 -18 6
-38 2 -38 -6 0 -53 49 -53 55 0 2 -27 31 -60 65 -59 61 -61 61 -90 48 -17 -7
-30 -16 -30 -20 0 -17 -38 -6 -76 20 -58 43 -68 44 -103 12 -44 -41 -41 -68
16 -118 25 -23 44 -45 41 -48 -4 -3 -26 4 -51 15 -25 12 -50 21 -55 21 -6 0
-22 -22 -36 -50 -19 -36 -22 -51 -14 -56 7 -4 53 -28 103 -52 49 -24 92 -47
95 -50 3 -4 12 -8 20 -10 8 -2 16 -8 18 -13 2 -5 9 -9 16 -9 7 0 32 -13 54
-30 23 -17 45 -30 49 -30 12 0 100 -86 112 -109 17 -31 14 -32 -36 -10 -44 19
-114 46 -138 53 -5 2 -17 6 -25 9 -52 20 -151 48 -176 50 -26 2 -28 -1 -32
-40 -3 -40 -2 -43 21 -43 13 0 26 -3 30 -6 5 -5 115 -47 152 -57 40 -12 73
-26 165 -69 58 -27 107 -53 110 -57 9 -12 65 -45 73 -43 18 5 3 -20 -43 -69
-27 -30 -50 -57 -50 -61 0 -4 -6 -13 -13 -20 -30 -31 -59 -121 -58 -182 1 -53
5 -89 11 -106 1 -3 2 -8 1 -12 -4 -27 118 -261 151 -290 12 -10 18 -18 14 -18
-7 0 94 -122 167 -201 9 -10 16 -19 14 -19 -2 0 40 -46 92 -102 157 -166 727
-728 740 -728 3 0 32 -27 64 -60 31 -33 60 -60 63 -60 4 0 24 -18 45 -40 22
-22 42 -40 45 -40 4 0 23 -17 44 -37 20 -21 63 -60 94 -88 32 -27 74 -66 95
-85 21 -19 76 -69 122 -110 46 -41 95 -86 109 -100 14 -14 52 -47 85 -73 33
-26 78 -64 101 -86 48 -46 115 -82 154 -83 15 -1 42 9 59 22 31 21 32 24 27
79 -5 54 -48 194 -67 217 -5 6 -6 14 -2 17 3 4 1 7 -5 7 -7 0 -12 6 -12 13 0
14 -57 160 -90 232 -13 28 -25 59 -27 69 -2 11 -7 24 -12 30 -4 6 -23 50 -42
99 -18 48 -37 87 -41 87 -4 0 -8 6 -8 13 0 8 -6 27 -14 43 -8 16 -24 52 -36
79 -11 28 -25 59 -30 70 -5 11 -21 47 -35 80 -26 58 -43 95 -158 340 -28 61
-57 117 -63 125 -6 8 -27 47 -47 85 -83 164 -102 200 -107 205 -3 3 -15 23
-26 45 -65 122 -122 214 -128 208 -4 -4 -4 0 0 10 3 9 2 17 -3 17 -5 0 -17 15
-26 33 -10 17 -31 55 -47 82 -16 28 -36 62 -44 77 -52 89 -179 250 -281 353
-59 60 -169 129 -225 142 -40 10 -183 4 -197 -7 -2 -2 -7 -4 -13 -5 -5 -1 -12
-4 -15 -5 -3 -1 -8 -3 -12 -5 -28 -7 -69 -28 -75 -38 -11 -19 -17 -5 -37 95
-11 53 -32 138 -47 190 -14 51 -27 98 -28 103 -1 6 -10 28 -20 50 -9 21 -18
46 -20 55 -3 17 -15 46 -59 140 -16 36 -30 71 -30 78 0 18 -51 19 -74 0 -16
-13 -32 3 -55 55 -20 41 -21 42 -64 23z"/>
</g>
</svg>
